<?xml version="1.0" encoding="UTF-8"?>
<svg id="Layer_1" data-name="Layer 1" xmlns="http://www.w3.org/2000/svg" viewBox="0 0 999 480">
  <defs>
    <style>
      .cls-1 {
        fill: #ebddcc;
      }
    </style>
  </defs>
  <path class="cls-1" d="m273.83,155.61v86.34c0,2.48,1.02,4.23,3.07,5.25,2.05,1.02,5.5,1.81,10.35,2.34,1.19,0,1.78.86,1.78,2.59,0,.76-.11,1.67-.32,2.75-3.45-.22-7.09-.4-10.91-.57-3.83-.16-7.68-.24-11.56-.24s-7.63.08-11.56.24c-3.93.16-7.63.35-11.08.57-.22-1.08-.32-1.99-.32-2.75,0-1.51.54-2.37,1.62-2.59,4.85-.65,8.35-1.45,10.51-2.43,2.16-.97,3.23-2.69,3.23-5.17v-86.34h-16.66c-3.23,0-5.96.32-8.17.97-2.21.65-4.12,1.62-5.74,2.91-1.62,1.29-3.02,2.96-4.2,5.01-1.19,2.05-2.43,4.42-3.72,7.12-.22.54-.57.92-1.05,1.13-.49.22-.94.32-1.38.32-1.18,0-2.21-.32-3.07-.97,1.08-3.88,1.89-7.33,2.43-10.35.54-3.02,1.02-5.52,1.45-7.52.43-1.99.89-3.53,1.37-4.61.49-1.08,1.27-1.62,2.35-1.62.75,0,1.83.05,3.23.16,1.4.11,2.88.22,4.45.32,1.56.11,3.15.22,4.77.32,1.62.11,3.13.16,4.53.16h54c1.29,0,2.75-.05,4.37-.16s3.23-.22,4.85-.32c1.62-.11,3.1-.22,4.45-.32,1.35-.11,2.45-.16,3.32-.16,1.08,0,1.86.57,2.34,1.7.49,1.13.94,2.72,1.38,4.77s.89,4.58,1.37,7.6c.48,3.02,1.32,6.36,2.51,10.02-.54.22-1.05.43-1.54.65-.49.22-1.05.32-1.7.32-.43,0-.92-.11-1.46-.32-.54-.22-.92-.59-1.13-1.13-1.19-2.7-2.37-5.07-3.56-7.12-1.18-2.05-2.56-3.72-4.12-5.01-1.56-1.29-3.45-2.26-5.66-2.91-2.21-.65-4.93-.97-8.17-.97h-16.65Z"/>
  <path class="cls-1" d="m372.3,208.97l-15.04-39.61-15.68,39.61h30.72Zm2.59,6.63h-36.06l-10.35,26.03c-.54,1.29-.81,2.37-.81,3.23,0,2.26,3.29,3.88,9.86,4.85.75.11,1.27.4,1.54.89.27.48.4,1.05.4,1.7s-.11,1.51-.32,2.59c-2.91-.22-5.98-.4-9.22-.57-3.23-.16-6.41-.24-9.54-.24-2.16,0-4.37.05-6.63.16-2.26.11-4.64.32-7.11.65-.22-.86-.32-1.73-.32-2.59,0-.75.13-1.4.41-1.94.27-.54.83-.86,1.7-.97,3.34-.54,5.85-1.21,7.52-2.02,1.67-.81,2.88-2.07,3.64-3.8l38.97-93.78c.76-1.83,1.78-2.75,3.07-2.75.43,0,1.08.11,1.94.32l39.13,96.69c.65,1.51,2.1,2.69,4.36,3.56,2.26.86,4.47,1.45,6.63,1.78.65.22,1.16.51,1.54.89.38.38.57,1.05.57,2.02,0,.65-.11,1.51-.32,2.59-3.45-.22-6.84-.4-10.19-.57-3.34-.16-6.47-.24-9.38-.24s-6.47.08-10.35.24c-3.88.16-7.38.35-10.51.57-.22-1.08-.32-1.94-.32-2.59,0-.97.19-1.64.57-2.02.38-.38.73-.57,1.05-.57,2.8-.54,5.07-1.16,6.79-1.86,1.72-.7,2.59-1.75,2.59-3.15,0-.65-.22-1.46-.65-2.42l-10.19-26.68Z"/>
  <path class="cls-1" d="m452.34,155.61v41.39h25.22c2.16,0,3.69-1.05,4.61-3.15.92-2.1,1.64-4.66,2.18-7.68.32-1.4,1.29-2.1,2.91-2.1.32,0,.75.05,1.29.16s.97.21,1.29.32c-.22,2.37-.4,5.07-.57,8.09-.16,3.02-.24,5.66-.24,7.92,0,1.83.05,4.07.16,6.71.11,2.64.32,5.63.65,8.97-.86.22-1.67.32-2.43.32-1.73,0-2.75-.7-3.07-2.1-.54-3.02-1.27-5.58-2.18-7.68-.92-2.1-2.45-3.15-4.61-3.15h-25.22v38.16c0,2.26,1.46,3.77,4.37,4.53,2.91.76,7.71,1.13,14.39,1.13h8.89c3.13,0,5.85-.46,8.17-1.38,2.32-.92,4.36-2.16,6.14-3.72,1.78-1.56,3.37-3.42,4.77-5.58,1.4-2.16,2.75-4.53,4.04-7.11.32-.76,1.13-1.13,2.43-1.13.54,0,1.1.16,1.7.49.59.32,1.16.65,1.7.97-.97,2.05-1.81,4.5-2.51,7.36s-1.38,5.58-2.02,8.17c-.65,2.59-1.32,4.8-2.02,6.63-.7,1.83-1.59,2.75-2.67,2.75-.86,0-2.1-.05-3.72-.16-1.62-.11-3.37-.19-5.25-.24-1.89-.05-3.8-.14-5.74-.24-1.94-.11-3.61-.16-5.01-.16h-35.41c-3.13,0-6.47.08-10.02.24-3.56.16-6.95.35-10.19.57-.22-1.08-.32-1.94-.32-2.59,0-1.51.54-2.37,1.62-2.59,4.1-.75,7.03-1.56,8.81-2.43,1.78-.86,2.67-2.37,2.67-4.53v-82.3c0-2.16-.78-3.64-2.34-4.45-1.56-.81-4.61-1.64-9.14-2.51-1.08-.22-1.62-1.13-1.62-2.75,0-.54.03-1,.08-1.37s.14-.78.24-1.21c4.64.32,8.52.54,11.64.65,3.13.11,5.93.16,8.41.16h31.85c4.85,0,9.06-.16,12.61-.48,3.56-.32,5.93-.49,7.11-.49,1.4,0,2.34.89,2.83,2.67.48,1.78.89,3.91,1.21,6.39.32,2.48.7,5.12,1.13,7.92.43,2.8,1.24,5.17,2.42,7.11-.86.65-1.83.97-2.91.97-1.4,0-2.32-.49-2.75-1.45-1.29-2.8-2.53-5.2-3.72-7.2-1.19-1.99-2.56-3.64-4.12-4.93-1.56-1.29-3.45-2.26-5.66-2.91-2.21-.65-4.93-.97-8.17-.97h-23.93Z"/>
  <path class="cls-1" d="m574.1,248.26c5.07,0,9.7-.97,13.91-2.91,4.2-1.94,7.82-4.64,10.83-8.09,3.02-3.45,5.36-7.55,7.03-12.29,1.67-4.74,2.51-9.92,2.51-15.52,0-7.76-.81-14.96-2.43-21.59-1.62-6.63-4.07-12.4-7.36-17.3-3.29-4.9-7.44-8.76-12.45-11.56-5.01-2.8-10.86-4.2-17.54-4.2-4.42,0-8.65.84-12.69,2.51s-7.6,4.1-10.67,7.28c-3.07,3.18-5.52,7.09-7.36,11.72-1.83,4.64-2.75,9.97-2.75,16.01,0,7.98.86,15.39,2.59,22.23,1.72,6.85,4.23,12.77,7.52,17.79,3.29,5.01,7.36,8.92,12.21,11.72,4.85,2.8,10.4,4.2,16.65,4.2Zm-55.62-46.73c0-7.44,1.35-14.44,4.04-21.02,2.7-6.58,6.36-12.34,11-17.3,4.63-4.96,10.02-8.89,16.17-11.8,6.14-2.91,12.61-4.37,19.4-4.37,9.38,0,17.57,1.48,24.58,4.45,7.01,2.96,12.8,6.95,17.38,11.97,4.58,5.01,8,10.81,10.27,17.38,2.26,6.58,3.4,13.48,3.4,20.7,0,8.52-1.4,16.14-4.2,22.88-2.8,6.74-6.66,12.45-11.56,17.14-4.9,4.69-10.67,8.27-17.3,10.75-6.63,2.48-13.72,3.72-21.26,3.72s-14.66-1.29-21.02-3.88c-6.36-2.59-11.83-6.28-16.41-11.08-4.58-4.8-8.14-10.54-10.67-17.22-2.53-6.68-3.8-14.12-3.8-22.31Z"/>
  <path class="cls-1" d="m723.34,228.37v-67.59c0-2.37-.86-4.04-2.59-5.01-1.72-.97-4.64-1.73-8.73-2.26-1.19-.11-1.78-1.02-1.78-2.75,0-.65.11-1.51.32-2.59,2.69.22,5.44.4,8.25.57,2.8.16,5.44.24,7.92.24s4.85-.08,7.44-.24c2.59-.16,5.12-.35,7.6-.57.21,1.08.32,1.94.32,2.59,0,1.73-.54,2.64-1.62,2.75-3.67.54-6.17,1.29-7.52,2.26-1.35.97-2.02,2.53-2.02,4.69v95.24c-.21.11-.59.19-1.13.24s-.97.08-1.29.08c-.75,0-1.45-.19-2.1-.57-.65-.38-1.4-1.16-2.26-2.35l-65.65-86.51v76.16c0,2.16.75,3.66,2.26,4.53,1.51.86,4.42,1.67,8.73,2.43,1.08.22,1.62,1.08,1.62,2.59,0,.65-.11,1.51-.32,2.59-2.7-.22-5.42-.4-8.17-.57-2.75-.16-5.31-.24-7.68-.24-2.16,0-4.69.08-7.6.24-2.91.16-5.55.35-7.92.57-.22-1.08-.32-1.94-.32-2.59,0-1.51.59-2.37,1.78-2.59,3.88-.75,6.49-1.56,7.84-2.43,1.35-.86,2.02-2.37,2.02-4.53v-83.11c0-1.72-.62-3.05-1.86-3.96-1.24-.92-3.8-1.64-7.68-2.18-1.19-.22-1.78-1.13-1.78-2.75,0-.54.05-1.02.16-1.45,0-.32.05-.7.16-1.13,2.16.22,4.2.38,6.14.49,1.72.11,3.56.19,5.5.24s3.66.08,5.17.08c3.13,0,5.2.11,6.22.32,1.02.22,1.86.76,2.51,1.62l58.05,77.45Z"/>
  <path class="cls-1" d="m588.06,302.54c-.39-.92-.82-1.95-.85-2.89.06-.15-.03-.35-.07-.45-.04-.1-.19-.16-.29-.12,0,0-12.1,29.75-26.74,35.88-3.18,1.33-6.65,1.94-9.34.42-1.71-1.21-2.33-2.4-3.04-2.1-.88.49-.29,2.77-.11,3.18.81,1.35,3.85,5.73,12.35,2.17,9.93-4.16,19.34-21.95,21.85-26.01,0,0,.16-.19.37-.27.1-.04.31-.13.35-.03-7.1,18.98-19.44,59.07-15.62,68.18.73,1.74,2.08,2.38,4.13,1.52,10.14-4.25,12.62-67.29,15.61-73.96,0,0,14.01-31.51,29.78-38.12,5.32-2.23,8.74-.41,10.37,3.48,4.12,9.83-3.11,33.09-20.93,40.55-3.48,1.46-10.02,3.96-13.79,1.56-.78-1-1.54-2.24-2.05-2.03-1.74.73-2.32,1.93-1.81,3.16,1.03,2.46,6.51,4.62,15.01,1.06,22.63-9.48,31.21-36.43,26.58-47.49-1.8-4.3-5.61-6.2-11.24-3.84-17.21,7.21-30.49,36.13-30.49,36.13Zm-15.93,75.78c-1.01.18-1.72-.36-2.19-1.49-3.56-8.5,8.58-49.94,12.92-60.55.38,1.77-6.4,59.74-10.73,62.04Z"/>
  <path class="cls-1" d="m609.04,348.89c6.13-9.79,7.79-15.9,8.6-16.25.21-.08.35-.03.48.28.4.67,3.14,5.19,4.2,5.71-3.16,8.55-3.74,13.49-2.71,15.94.9,2.15,3.17,2.4,6.04,1.2,7.37-3.09,18.98-15.05,24.01-24.87.06-.14.02-.25-.03-.35-.13-.31-.75-.65-1.27-.43-.1.04-.31.13-.37.27-4.81,8.64-14.92,19.85-20.55,22.21-1.84.77-3.23.63-3.83-.8-.81-1.95-.18-6.18,2.6-13.61-.03-.35-.2-.76-.33-1.07-.94-2.25-3.33-3.06-5.39-7.98l-.54-1.58c-.21-.51-.97-1.16-1.58-.9-.21.08-.41.17-.53.46,0,0-5.78,13.5-10.59,21.29,0,0-.03.5.09.8.13.31.42.43.83.25.2-.09.51-.22.84-.59Z"/>
  <path class="cls-1" d="m663.18,311.16c-.21-.51-1.3-1.38-2.29-1.45-.34-.82-1.26-1.28-2.08-.94-3.79,1.59-14.35,25.51-11.31,32.79.73,1.74,3.07,3.89,5.74,2.77,6.25-2.62,10.09-17.59,11.03-21.95,3.82,3.94,8.82,4.37,13.42,2.44,4.2-1.76,7.98-5.39,10.27-9.96.06-.15.02-.25-.03-.35-.13-.31-.75-.65-1.27-.43-.1.04-.31.13-.37.27-2.32,4.22-5.37,7.3-8.64,8.68-4.2,1.76-8.86.7-13.48-4.59l-1.01-7.28Zm-8.56,28.99c-1.23.52-2.31.24-2.95-1.29-2.79-6.66,5.04-21.01,8.04-25.64.29,1.56.83,3.14,1.09,3.76.3.72.6,1.43.96,2.01.9,2.15-1.51,18.81-7.14,21.17Z"/>
  <path class="cls-1" d="m691.9,300.69c.31-1.57.31-2.42.1-2.93-.21-.51-.61-.59-1.02-.42-.82.34-1.91,1.76-2.2,3.09-.18.44-2.63,10.97-2.84,13.35-1.38,6.48-3.29,18.59-5.6,30.88-14.19,23.88-16.2,37.49-14.23,42.2.73,1.74,1.89,2.22,3.33,1.62,3.99-1.67,9.53-24.1,14.27-45.83,5.04-8.37,11.45-17.8,19.67-28.34,2.12-2.69,3.85-5.47,5.27-8.11.06-.15.02-.25-.03-.35-.13-.31-.75-.65-1.26-.43-.1.04-.31.13-.37.27-1.3,2.35-3.07,5.02-5.03,7.53-6.97,8.94-12.49,17.03-17.16,24.28,3.72-18.41,6.69-35.19,7.1-36.8Zm-24.08,83.04c-1.03-2.46.9-14.22,11.56-33.62-3.26,16.65-7,32.43-10.79,34.02-.31.13-.6.01-.77-.4Zm28.34-100.48c-.47-1.13-1.86-1.87-3.09-1.35-1.54.64-2.95,3.88-2.18,5.73.6,1.43,2.03,1.68,3.15,1.21,1.43-.6,2.93-3.64,2.12-5.58Z"/>
  <path class="cls-1" d="m721.27,286.59c-.47-1.13-1.78-1.66-3.62-.89-7.37,3.09-14.94,23.83-11.76,31.41,1.07,2.56,3.44,3.62,7.43,1.94,7.37-3.09,18.98-15.05,24.01-24.87.06-.15.02-.25-.03-.35-.13-.31-.75-.65-1.26-.43-.1.04-.31.13-.37.27-4.81,8.64-14.92,19.85-20.55,22.21-2.87,1.2-4.55.34-5.45-1.81-.69-1.64-.87-4.09-.59-6.86,5.13-5.28,14.16-15.92,12.18-20.63Zm-3.82,2.08c.31-.13.6-.01.68.19,1.07,2.56-2.54,9.73-8.64,15.3,1.15-6.74,4.47-14.03,7.96-15.49Z"/>
  <path class="cls-1" d="m746.85,276.95c.31-.13.56-.11.68.19.9,2.15-2.25,6.12-1.65,7.55.13.31.42.43.73.3,1.43-.6,5.24-7.61,4.25-9.97-.51-1.23-1.97-1.82-3.91-1.01-7.99,3.35-14.38,22.28-11.21,29.86,1.2,2.87,3.76,4.08,8.06,2.28,8.6-3.6,19.7-18.49,22.62-24.16.06-.15.02-.25-.03-.35-.13-.31-.75-.65-1.26-.43-.1.04-.31.13-.37.27-3.33,5.85-11.81,18.07-18.47,20.86-3.58,1.5-5.79.26-6.91-2.4-2.62-6.25,1.22-20.37,7.46-22.99Z"/>
  <path class="cls-1" d="m792.82,269.73c-6.99,11.48-13.54,18.55-18.25,20.53-2.97,1.24-5.21.5-6.41-2.37-1.76-4.2-1.32-12.93,2.39-26.77.47-1.76,1.75-5.31,3.37-9.48,11.82-4.83,20.92-8.4,56.38-22.9,2.25-.94,2.05-2.3,1.23-4.25-.22-.51-.71-.55-1.33-.29-20.7,8.91-34.84,14.83-54.68,23.51,3.88-10.29,8.46-22.92,6.83-26.82-.3-.72-1.67-1.11-2.39-.81-.92.39-.78,1.29-1.14,2.16-.29,1.32-6.4,23.51-7.4,27.18l-26.5,11.46c-1.02.43-3.46,1.81-3.03,2.83.34.82,1.58.9,2.09.69,8.56-3.71,14.87-6.47,20.09-8.66l6.45-2.7-3.97,16.11c-2.87,10.96-3.09,17.91-1.5,21.7,1.46,3.48,4.44,4.28,8.23,2.69,6.14-2.57,14.24-11.14,21.17-23.32.06-.15.02-.25-.03-.35-.13-.31-.75-.65-1.27-.43-.1.04-.31.13-.37.27Z"/>
  <path class="cls-1" d="m260.59,110.84c6.24,0,9.47-3.03,9.47-9.42s-3.38-9.44-9.47-9.44h-4.34c-.28,0-.43.15-.43.48v17.9c0,.33.15.48.43.48h4.34Zm-2.8-1.74v-15.38h2.17c4.97-.13,8.05,2.15,8.05,7.7,0,4.7-2.09,7.68-6.92,7.68h-3.31Z"/>
  <path class="cls-1" d="m290.43,109.1h-9.29v-7.12h8.84v-1.77h-8.84v-6.49h8.89v-1.74h-10.43c-.28,0-.43.15-.43.48v17.9c0,.33.15.48.43.48h10.83v-1.74Z"/>
  <path class="cls-1" d="m312.68,91.98h-2.2l-5.53,16.41-5.53-16.41h-2.2l6.49,18.56c.05.2.2.3.43.3h1.62c.23,0,.38-.1.43-.3l6.49-18.56Z"/>
  <path class="cls-1" d="m331.58,109.1h-9.29v-7.12h8.84v-1.77h-8.84v-6.49h8.89v-1.74h-10.43c-.28,0-.43.15-.43.48v17.9c0,.33.15.48.43.48h10.83v-1.74Z"/>
  <path class="cls-1" d="m351.63,109.1h-8.94v-17.12h-1.99v18.38c0,.33.15.48.43.48h10.5v-1.74Z"/>
  <path class="cls-1" d="m371.88,108.54c1.44-1.74,2.15-4.11,2.15-7.12,0-5.88-2.95-9.85-8.2-9.85s-8.05,3.96-8.05,9.85,2.8,9.82,8.05,9.82c2.62,0,4.65-.98,6.06-2.7Zm-3.28.25c-.76.45-1.67.68-2.75.68-4.32,0-5.98-3.94-5.98-8.05s1.67-8.08,5.98-8.08,6.06,3.96,6.06,8.08c0,3.13-.99,6.01-3.31,7.37Z"/>
  <path class="cls-1" d="m384.9,102.84h3.96c3.51,0,6.21-1.72,6.21-5.43s-2.7-5.43-6.21-5.43h-5.48c-.38,0-.45.1-.45.48v18.38h1.97v-8Zm-.03-1.77v-7.35h3.64c2.8,0,4.52,1.09,4.52,3.69s-1.72,3.66-4.52,3.66h-3.64Z"/>
  <path class="cls-1" d="m414.67,109.1h-9.29v-7.12h8.84v-1.77h-8.84v-6.49h8.89v-1.74h-10.43c-.28,0-.43.15-.43.48v17.9c0,.33.15.48.43.48h10.83v-1.74Z"/>
  <path class="cls-1" d="m436.4,110.84c-.73-1.29-.56-2.63-.88-5.66-.2-2.1-.76-3.71-2.9-4.19,1.92-.63,3.16-1.94,3.16-4.06,0-3.33-2.47-4.95-6.06-4.95h-5.48c-.38,0-.45.1-.45.48v18.38h1.97v-8.89h4.17c3.05,0,3.36.66,3.76,4.92.1,1.31.13,2.95.45,3.96h2.27Zm-10.68-10.65v-6.46h3.63c2.95,0,4.37.86,4.37,3.18s-1.67,3.28-4.52,3.28h-3.48Z"/>
  <path class="cls-1" d="m469.15,106.09c-.48,2.42-2.22,3.38-4.34,3.38-4.37,0-5.73-4.22-5.73-8.05s1.36-8.08,5.73-8.08c2.22,0,3.89,1.06,4.27,3.18h2.12c-.33-3.43-3.23-4.95-6.39-4.95-5.53,0-7.85,4.67-7.85,9.85s2.3,9.82,7.85,9.82c3.31,0,6.08-1.82,6.49-5.15h-2.15Z"/>
  <path class="cls-1" d="m492.14,108.54c1.44-1.74,2.15-4.11,2.15-7.12,0-5.88-2.95-9.85-8.2-9.85s-8.05,3.96-8.05,9.85,2.8,9.82,8.05,9.82c2.62,0,4.65-.98,6.06-2.7Zm-3.28.25c-.76.45-1.67.68-2.75.68-4.32,0-5.98-3.94-5.98-8.05s1.67-8.08,5.98-8.08,6.06,3.96,6.06,8.08c0,3.13-.99,6.01-3.31,7.37Z"/>
  <path class="cls-1" d="m516.73,91.98h-1.94v13.2l.05,3-1.44-2.75-7.85-13.13c-.13-.23-.28-.33-.5-.33h-1.62c-.28,0-.43.15-.43.48v18.38h1.94v-13.2l-.05-3,1.44,2.75,7.85,13.13c.1.23.28.33.5.33h1.61c.28,0,.43-.15.43-.48v-18.38Z"/>
  <path class="cls-1" d="m525.17,105.79c.03,3.46,2.25,5.45,6.11,5.45,1.94,0,3.23-.23,4.62-1.21,1.21-.88,1.92-2.3,1.92-4.22,0-3.31-2.35-4.14-5-5.1-2.88-1.01-5.08-1.62-5.08-4.22,0-1.89,1.74-3.15,3.91-3.15,1.82,0,3.59.76,3.71,2.9h2.12c-.02-1.82-.93-3.08-2.25-3.79-1.14-.61-2.15-.88-3.69-.88-2.93,0-5.88,1.82-5.88,5.15s2.4,4.32,4.9,5.2c3.41,1.21,5.15,1.72,5.15,4.04s-2.2,3.51-4.19,3.51c-2.3,0-4.27-.83-4.19-3.68h-2.17Z"/>
  <polygon class="cls-1" points="551.7 93.72 557.38 93.72 557.38 91.98 543.92 91.98 543.92 93.72 549.7 93.72 549.7 110.84 551.7 110.84 551.7 93.72"/>
  <path class="cls-1" d="m577.78,110.84c-.73-1.29-.56-2.63-.88-5.66-.2-2.1-.76-3.71-2.9-4.19,1.92-.63,3.16-1.94,3.16-4.06,0-3.33-2.47-4.95-6.06-4.95h-5.48c-.38,0-.45.1-.45.48v18.38h1.97v-8.89h4.17c3.05,0,3.36.66,3.76,4.92.1,1.31.13,2.95.45,3.96h2.27Zm-10.68-10.65v-6.46h3.64c2.95,0,4.37.86,4.37,3.18s-1.67,3.28-4.52,3.28h-3.48Z"/>
  <path class="cls-1" d="m600.3,91.98h-2v12.14c-.18,3.46-1.92,5.35-4.77,5.35s-4.57-1.89-4.7-5.35v-12.14h-1.97v12.17c0,4.04,2.22,7.09,6.67,7.09s6.69-3.05,6.77-7.09v-12.17Z"/>
  <path class="cls-1" d="m621.33,106.09c-.48,2.42-2.22,3.38-4.34,3.38-4.37,0-5.73-4.22-5.73-8.05s1.36-8.08,5.73-8.08c2.22,0,3.89,1.06,4.27,3.18h2.12c-.33-3.43-3.23-4.95-6.39-4.95-5.53,0-7.85,4.67-7.85,9.85s2.3,9.82,7.85,9.82c3.31,0,6.08-1.82,6.49-5.15h-2.15Z"/>
  <polygon class="cls-1" points="637.56 93.72 643.24 93.72 643.24 91.98 629.78 91.98 629.78 93.72 635.56 93.72 635.56 110.84 637.56 110.84 637.56 93.72"/>
  <rect class="cls-1" x="651.17" y="91.91" width="1.99" height="18.93"/>
  <path class="cls-1" d="m676.34,108.54c1.44-1.74,2.14-4.11,2.14-7.12,0-5.88-2.95-9.85-8.2-9.85s-8.05,3.96-8.05,9.85,2.8,9.82,8.05,9.82c2.62,0,4.65-.98,6.06-2.7Zm-3.28.25c-.76.45-1.67.68-2.75.68-4.32,0-5.98-3.94-5.98-8.05s1.67-8.08,5.98-8.08,6.06,3.96,6.06,8.08c0,3.13-.98,6.01-3.31,7.37Z"/>
  <path class="cls-1" d="m700.92,91.98h-1.94v13.2l.05,3-1.44-2.75-7.85-13.13c-.13-.23-.28-.33-.51-.33h-1.62c-.28,0-.43.15-.43.48v18.38h1.94v-13.2l-.05-3,1.44,2.75,7.85,13.13c.1.23.28.33.51.33h1.61c.28,0,.43-.15.43-.48v-18.38Z"/>
</svg>